# xmcd CD database file
#
# Track frame offsets:
#	150
#	13371
#	25725
#	40626
#	51853
#	68953
#	95199
#	112586
#	126356
#	143678
#	155772
#	174812
#	193685
#	210932
#	239352
#
# Disc length: 3970 seconds
#
# Revision: 1
# Processed by: cddbd v1.5.2PL0 Copyright (c) Steve Scherf et al.
# Submitted via: CDex 1.51
#
DISCID=c80f800f
DTITLE=Keith Urban - In The Ranch
DYEAR=2004
DGENRE=Country
TTITLE0=Walkin' The Country
TTITLE1=Homespun Love
TTITLE2=Just Some Love
TTITLE3=Some Days You Gotta Dance
TTITLE4=My Last Name
TTITLE5=Desiree
TTITLE6=Freedom's Finally Mine
TTITLE7=Hank Don't Fail Me Now
TTITLE8=Tangled Up In Love
TTITLE9=Clutterbilly
TTITLE10=Man Of The House
TTITLE11=Ghost In The Guitar
TTITLE12=Stuck In The Middle
TTITLE13=Billy
TTITLE14=Data Track
EXTD=YEAR: 2004
EXTT0=
EXTT1=
EXTT2=
EXTT3=
EXTT4=
EXTT5=
EXTT6=
EXTT7=
EXTT8=
EXTT9=
EXTT10=
EXTT11=
EXTT12=
EXTT13=
EXTT14=
PLAYORDER=
